<svg width="362" height="91" viewBox="0 0 362 91" fill="none" xmlns="http://www.w3.org/2000/svg">
<path d="M29.8594 70.6875C29.8594 72.7656 29.3203 74.6328 28.2422 76.2891C27.1797 77.9453 25.6172 79.2422 23.5547 80.1797C21.4922 81.1172 19.0469 81.5859 16.2188 81.5859C12.8281 81.5859 10.0312 80.9453 7.82812 79.6641C6.26562 78.7422 4.99219 77.5156 4.00781 75.9844C3.03906 74.4375 2.55469 72.9375 2.55469 71.4844C2.55469 70.6406 2.84375 69.9219 3.42188 69.3281C4.01562 68.7188 4.76562 68.4141 5.67188 68.4141C6.40625 68.4141 7.02344 68.6484 7.52344 69.1172C8.03906 69.5859 8.47656 70.2812 8.83594 71.2031C9.27344 72.2969 9.74219 73.2109 10.2422 73.9453C10.7578 74.6797 11.4766 75.2891 12.3984 75.7734C13.3203 76.2422 14.5312 76.4766 16.0312 76.4766C18.0938 76.4766 19.7656 76 21.0469 75.0469C22.3438 74.0781 22.9922 72.875 22.9922 71.4375C22.9922 70.2969 22.6406 69.375 21.9375 68.6719C21.25 67.9531 20.3516 67.4062 19.2422 67.0312C18.1484 66.6562 16.6797 66.2578 14.8359 65.8359C12.3672 65.2578 10.2969 64.5859 8.625 63.8203C6.96875 63.0391 5.64844 61.9844 4.66406 60.6562C3.69531 59.3125 3.21094 57.6484 3.21094 55.6641C3.21094 53.7734 3.72656 52.0938 4.75781 50.625C5.78906 49.1562 7.28125 48.0312 9.23438 47.25C11.1875 46.4531 13.4844 46.0547 16.125 46.0547C18.2344 46.0547 20.0547 46.3203 21.5859 46.8516C23.1328 47.3672 24.4141 48.0625 25.4297 48.9375C26.4453 49.7969 27.1875 50.7031 27.6562 51.6562C28.125 52.6094 28.3594 53.5391 28.3594 54.4453C28.3594 55.2734 28.0625 56.0234 27.4688 56.6953C26.8906 57.3516 26.1641 57.6797 25.2891 57.6797C24.4922 57.6797 23.8828 57.4844 23.4609 57.0938C23.0547 56.6875 22.6094 56.0312 22.125 55.125C21.5 53.8281 20.75 52.8203 19.875 52.1016C19 51.3672 17.5938 51 15.6562 51C13.8594 51 12.4062 51.3984 11.2969 52.1953C10.2031 52.9766 9.65625 53.9219 9.65625 55.0312C9.65625 55.7188 9.84375 56.3125 10.2188 56.8125C10.5938 57.3125 11.1094 57.7422 11.7656 58.1016C12.4219 58.4609 13.0859 58.7422 13.7578 58.9453C14.4297 59.1484 15.5391 59.4453 17.0859 59.8359C19.0234 60.2891 20.7734 60.7891 22.3359 61.3359C23.9141 61.8828 25.25 62.5469 26.3438 63.3281C27.4531 64.1094 28.3125 65.1016 28.9219 66.3047C29.5469 67.4922 29.8594 68.9531 29.8594 70.6875ZM89.2781 52.3828H81.6844V77.3438C81.6844 78.7812 81.3641 79.8516 80.7234 80.5547C80.0828 81.2422 79.2547 81.5859 78.2391 81.5859C77.2078 81.5859 76.3641 81.2344 75.7078 80.5312C75.0672 79.8281 74.7469 78.7656 74.7469 77.3438V52.3828H67.1531C65.9656 52.3828 65.0828 52.125 64.5047 51.6094C63.9266 51.0781 63.6375 50.3828 63.6375 49.5234C63.6375 48.6328 63.9344 47.9297 64.5281 47.4141C65.1375 46.8984 66.0125 46.6406 67.1531 46.6406H89.2781C90.4813 46.6406 91.3719 46.9062 91.95 47.4375C92.5438 47.9688 92.8406 48.6641 92.8406 49.5234C92.8406 50.3828 92.5438 51.0781 91.95 51.6094C91.3563 52.125 90.4656 52.3828 89.2781 52.3828ZM116.246 52.0078H100.567V60.4453H115.004C116.067 60.4453 116.856 60.6875 117.371 61.1719C117.903 61.6406 118.168 62.2656 118.168 63.0469C118.168 63.8281 117.91 64.4688 117.395 64.9688C116.879 65.4531 116.082 65.6953 115.004 65.6953H100.567V75.4688H116.785C117.879 75.4688 118.699 75.7266 119.246 76.2422C119.809 76.7422 120.09 77.4141 120.09 78.2578C120.09 79.0703 119.809 79.7344 119.246 80.25C118.699 80.75 117.879 81 116.785 81H97.8713C96.3556 81 95.2619 80.6641 94.59 79.9922C93.9338 79.3203 93.6056 78.2344 93.6056 76.7344V50.9062C93.6056 49.9062 93.7541 49.0938 94.0509 48.4688C94.3478 47.8281 94.8088 47.3672 95.4338 47.0859C96.0744 46.7891 96.8869 46.6406 97.8713 46.6406H116.246C117.356 46.6406 118.176 46.8906 118.707 47.3906C119.254 47.875 119.528 48.5156 119.528 49.3125C119.528 50.125 119.254 50.7812 118.707 51.2812C118.176 51.7656 117.356 52.0078 116.246 52.0078ZM131.613 66.3047H129.175V77.3438C129.175 78.7969 128.855 79.8672 128.214 80.5547C127.574 81.2422 126.738 81.5859 125.707 81.5859C124.597 81.5859 123.738 81.2266 123.128 80.5078C122.519 79.7891 122.214 78.7344 122.214 77.3438V50.9062C122.214 49.4062 122.55 48.3203 123.222 47.6484C123.894 46.9766 124.98 46.6406 126.48 46.6406H137.8C139.363 46.6406 140.699 46.7109 141.808 46.8516C142.918 46.9766 143.918 47.2422 144.808 47.6484C145.886 48.1016 146.839 48.75 147.668 49.5938C148.496 50.4375 149.121 51.4219 149.543 52.5469C149.98 53.6562 150.199 54.8359 150.199 56.0859C150.199 58.6484 149.472 60.6953 148.019 62.2266C146.582 63.7578 144.394 64.8438 141.457 65.4844C142.691 66.1406 143.871 67.1094 144.996 68.3906C146.121 69.6719 147.121 71.0391 147.996 72.4922C148.886 73.9297 149.574 75.2344 150.058 76.4062C150.558 77.5625 150.808 78.3594 150.808 78.7969C150.808 79.25 150.66 79.7031 150.363 80.1562C150.082 80.5938 149.691 80.9375 149.191 81.1875C148.691 81.4531 148.113 81.5859 147.457 81.5859C146.675 81.5859 146.019 81.3984 145.488 81.0234C144.957 80.6641 144.496 80.2031 144.105 79.6406C143.73 79.0781 143.214 78.25 142.558 77.1562L139.769 72.5156C138.769 70.8125 137.871 69.5156 137.074 68.625C136.293 67.7344 135.496 67.125 134.683 66.7969C133.871 66.4688 132.847 66.3047 131.613 66.3047ZM135.597 51.8672H129.175V61.3125H135.41C137.082 61.3125 138.488 61.1719 139.628 60.8906C140.769 60.5938 141.636 60.1016 142.23 59.4141C142.839 58.7109 143.144 57.75 143.144 56.5312C143.144 55.5781 142.902 54.7422 142.418 54.0234C141.933 53.2891 141.261 52.7422 140.402 52.3828C139.589 52.0391 137.988 51.8672 135.597 51.8672ZM153.729 77.3438V50.2734C153.729 48.8672 154.05 47.8125 154.69 47.1094C155.331 46.4062 156.159 46.0547 157.175 46.0547C158.222 46.0547 159.065 46.4062 159.706 47.1094C160.362 47.7969 160.69 48.8516 160.69 50.2734V77.3438C160.69 78.7656 160.362 79.8281 159.706 80.5312C159.065 81.2344 158.222 81.5859 157.175 81.5859C156.175 81.5859 155.347 81.2344 154.69 80.5312C154.05 79.8125 153.729 78.75 153.729 77.3438ZM187.119 77.1094L185.479 72.7969H171.51L169.869 77.2031C169.229 78.9219 168.682 80.0859 168.229 80.6953C167.776 81.2891 167.033 81.5859 166.002 81.5859C165.127 81.5859 164.354 81.2656 163.682 80.625C163.01 79.9844 162.674 79.2578 162.674 78.4453C162.674 77.9766 162.752 77.4922 162.908 76.9922C163.065 76.4922 163.322 75.7969 163.682 74.9062L172.471 52.5938C172.721 51.9531 173.018 51.1875 173.362 50.2969C173.721 49.3906 174.096 48.6406 174.487 48.0469C174.893 47.4531 175.416 46.9766 176.057 46.6172C176.713 46.2422 177.518 46.0547 178.471 46.0547C179.44 46.0547 180.244 46.2422 180.885 46.6172C181.541 46.9766 182.065 47.4453 182.455 48.0234C182.862 48.6016 183.197 49.2266 183.463 49.8984C183.744 50.5547 184.096 51.4375 184.518 52.5469L193.494 74.7188C194.197 76.4062 194.549 77.6328 194.549 78.3984C194.549 79.1953 194.213 79.9297 193.541 80.6016C192.885 81.2578 192.088 81.5859 191.151 81.5859C190.604 81.5859 190.135 81.4844 189.744 81.2812C189.354 81.0938 189.026 80.8359 188.76 80.5078C188.494 80.1641 188.205 79.6484 187.893 78.9609C187.596 78.2578 187.338 77.6406 187.119 77.1094ZM173.338 67.5703H183.604L178.424 53.3906L173.338 67.5703ZM205.673 66.3047H203.236V77.3438C203.236 78.7969 202.916 79.8672 202.275 80.5547C201.634 81.2422 200.798 81.5859 199.767 81.5859C198.658 81.5859 197.798 81.2266 197.189 80.5078C196.58 79.7891 196.275 78.7344 196.275 77.3438V50.9062C196.275 49.4062 196.611 48.3203 197.283 47.6484C197.955 46.9766 199.041 46.6406 200.541 46.6406H211.861C213.423 46.6406 214.759 46.7109 215.869 46.8516C216.978 46.9766 217.978 47.2422 218.869 47.6484C219.947 48.1016 220.9 48.75 221.728 49.5938C222.556 50.4375 223.181 51.4219 223.603 52.5469C224.041 53.6562 224.259 54.8359 224.259 56.0859C224.259 58.6484 223.533 60.6953 222.08 62.2266C220.642 63.7578 218.455 64.8438 215.517 65.4844C216.752 66.1406 217.931 67.1094 219.056 68.3906C220.181 69.6719 221.181 71.0391 222.056 72.4922C222.947 73.9297 223.634 75.2344 224.119 76.4062C224.619 77.5625 224.869 78.3594 224.869 78.7969C224.869 79.25 224.72 79.7031 224.423 80.1562C224.142 80.5938 223.752 80.9375 223.252 81.1875C222.752 81.4531 222.173 81.5859 221.517 81.5859C220.736 81.5859 220.08 81.3984 219.548 81.0234C219.017 80.6641 218.556 80.2031 218.166 79.6406C217.791 79.0781 217.275 78.25 216.619 77.1562L213.83 72.5156C212.83 70.8125 211.931 69.5156 211.134 68.625C210.353 67.7344 209.556 67.125 208.744 66.7969C207.931 66.4688 206.908 66.3047 205.673 66.3047ZM209.658 51.8672H203.236V61.3125H209.47C211.142 61.3125 212.548 61.1719 213.689 60.8906C214.83 60.5938 215.697 60.1016 216.291 59.4141C216.9 58.7109 217.205 57.75 217.205 56.5312C217.205 55.5781 216.962 54.7422 216.478 54.0234C215.994 53.2891 215.322 52.7422 214.462 52.3828C213.65 52.0391 212.048 51.8672 209.658 51.8672ZM250.149 52.0078H234.47V60.4453H248.907C249.97 60.4453 250.759 60.6875 251.274 61.1719C251.806 61.6406 252.071 62.2656 252.071 63.0469C252.071 63.8281 251.813 64.4688 251.298 64.9688C250.782 65.4531 249.985 65.6953 248.907 65.6953H234.47V75.4688H250.688C251.782 75.4688 252.603 75.7266 253.149 76.2422C253.712 76.7422 253.993 77.4141 253.993 78.2578C253.993 79.0703 253.712 79.7344 253.149 80.25C252.603 80.75 251.782 81 250.688 81H231.774C230.259 81 229.165 80.6641 228.493 79.9922C227.837 79.3203 227.509 78.2344 227.509 76.7344V50.9062C227.509 49.9062 227.657 49.0938 227.954 48.4688C228.251 47.8281 228.712 47.3672 229.337 47.0859C229.978 46.7891 230.79 46.6406 231.774 46.6406H250.149C251.259 46.6406 252.079 46.8906 252.61 47.3906C253.157 47.875 253.431 48.5156 253.431 49.3125C253.431 50.125 253.157 50.7812 252.61 51.2812C252.079 51.7656 251.259 52.0078 250.149 52.0078ZM256.446 77.3438V50.2734C256.446 48.8672 256.766 47.8125 257.407 47.1094C258.047 46.4062 258.875 46.0547 259.891 46.0547C260.938 46.0547 261.782 46.4062 262.422 47.1094C263.078 47.7969 263.407 48.8516 263.407 50.2734V77.3438C263.407 78.7656 263.078 79.8281 262.422 80.5312C261.782 81.2344 260.938 81.5859 259.891 81.5859C258.891 81.5859 258.063 81.2344 257.407 80.5312C256.766 79.8125 256.446 78.75 256.446 77.3438ZM290.164 52.3828H282.57V77.3438C282.57 78.7812 282.25 79.8516 281.609 80.5547C280.968 81.2422 280.14 81.5859 279.125 81.5859C278.093 81.5859 277.25 81.2344 276.593 80.5312C275.953 79.8281 275.633 78.7656 275.633 77.3438V52.3828H268.039C266.851 52.3828 265.968 52.125 265.39 51.6094C264.812 51.0781 264.523 50.3828 264.523 49.5234C264.523 48.6328 264.82 47.9297 265.414 47.4141C266.023 46.8984 266.898 46.6406 268.039 46.6406H290.164C291.367 46.6406 292.258 46.9062 292.836 47.4375C293.429 47.9688 293.726 48.6641 293.726 49.5234C293.726 50.3828 293.429 51.0781 292.836 51.6094C292.242 52.125 291.351 52.3828 290.164 52.3828ZM316.804 52.3828H309.21V77.3438C309.21 78.7812 308.89 79.8516 308.249 80.5547C307.608 81.2422 306.78 81.5859 305.765 81.5859C304.733 81.5859 303.89 81.2344 303.233 80.5312C302.593 79.8281 302.272 78.7656 302.272 77.3438V52.3828H294.679C293.491 52.3828 292.608 52.125 292.03 51.6094C291.452 51.0781 291.163 50.3828 291.163 49.5234C291.163 48.6328 291.46 47.9297 292.054 47.4141C292.663 46.8984 293.538 46.6406 294.679 46.6406H316.804C318.007 46.6406 318.897 46.9062 319.476 47.4375C320.069 47.9688 320.366 48.6641 320.366 49.5234C320.366 50.3828 320.069 51.0781 319.476 51.6094C318.882 52.125 317.991 52.3828 316.804 52.3828ZM321.413 77.3438V50.2734C321.413 48.8672 321.733 47.8125 322.373 47.1094C323.014 46.4062 323.842 46.0547 324.858 46.0547C325.905 46.0547 326.748 46.4062 327.389 47.1094C328.045 47.7969 328.373 48.8516 328.373 50.2734V77.3438C328.373 78.7656 328.045 79.8281 327.389 80.5312C326.748 81.2344 325.905 81.5859 324.858 81.5859C323.858 81.5859 323.03 81.2344 322.373 80.5312C321.733 79.8125 321.413 78.75 321.413 77.3438Z" fill="#FDAC61"/>
<g clip-path="url(#clip0_1_4)">
<path d="M53 45H43V82H53V45Z" fill="#FDAC61"/>
<path d="M37.8828 47.8559L32.8966 52.9806L58.3525 79.1436L63.3387 74.0189L37.8828 47.8559Z" fill="#FDAC61"/>
<path d="M66.1177 59.8754H30.1177V67.1228H66.1177V59.8754Z" fill="#FDAC61"/>
<path d="M58.3525 47.8546L32.8966 74.0176L37.8828 79.1423L63.3387 52.9793L58.3525 47.8546Z" fill="#FDAC61"/>
</g>
<path d="M47.5594 48.0969C46.3219 48.4844 45.4969 50.1615 45.7547 51.766C45.8813 52.5713 46.3594 53.4432 46.8891 53.8367L47.1094 54.0062V54.9629V55.9135L46.4672 55.9437C45.7125 55.9801 45.3 56.1254 44.7703 56.5311C42.5719 58.2203 42.6844 62.392 44.9719 63.8996C45.4547 64.2205 45.9 64.3477 46.5563 64.3477H47.1094V65.9824V67.6172H46.8985C46.5094 67.6172 45.975 67.7988 45.5156 68.0834C45.1453 68.3135 45.0094 68.4406 44.6672 68.8826C44.325 69.3246 44.2266 69.5002 44.0485 69.9785C43.4156 71.6738 43.6547 73.5326 44.6672 74.8223C45.2578 75.567 45.8391 75.9242 46.6641 76.0453L47.1 76.1119L47.1188 77.0564C47.1328 77.5771 47.1656 78.0736 47.1938 78.1584C47.2735 78.4187 47.5406 78.7699 47.7422 78.885C48.2156 79.1635 48.7875 78.891 49.036 78.2674C49.111 78.0676 49.125 77.9041 49.125 77.0625V76.0937H49.8047C50.7141 76.0937 50.9156 76.0332 51.1922 75.676C51.5906 75.1674 51.6188 74.4953 51.2719 73.9443C51.0235 73.5568 50.9297 73.5266 49.9922 73.4902L49.1485 73.46V71.8555V70.251L49.6641 70.2146C51.1453 70.0996 52.2797 68.9492 52.7156 67.1025C52.7766 66.8301 52.8 66.5455 52.8 65.9824C52.8 65.3346 52.7813 65.159 52.6781 64.7594C52.5 64.0691 52.2422 63.5242 51.8719 63.0398C51.2531 62.2467 50.6531 61.8955 49.7016 61.7865L49.125 61.726V60.1275V58.5352H50.5219C51.286 58.5352 51.9844 58.5109 52.0735 58.4746C52.6219 58.2748 52.95 57.5059 52.7766 56.8338C52.7016 56.5432 52.5328 56.2707 52.3266 56.1012C52.1531 55.9619 52.1203 55.9619 50.6485 55.9316L49.1485 55.9014L49.1344 54.9811L49.1203 54.0668L49.4485 53.7822C49.8563 53.4371 50.1141 53.0617 50.325 52.4986C51.211 50.1434 49.5375 47.4793 47.5594 48.0969ZM47.1094 60.1396V61.7441H46.6313C46.05 61.7441 45.7735 61.6109 45.5016 61.1992C45.0563 60.5211 45.1078 59.4918 45.6281 58.9227C45.8906 58.632 46.125 58.5473 46.6547 58.5412L47.1094 58.5352V60.1396ZM50.0672 64.5353C51.0281 65.0742 51.0516 66.818 50.1047 67.4295C49.8563 67.5869 49.7578 67.6172 49.4672 67.6172H49.125V66.0248C49.125 65.1469 49.1391 64.4082 49.1625 64.384C49.2188 64.2992 49.8281 64.4021 50.0672 64.5353ZM47.1094 71.8615V73.5023L46.8656 73.46C45.7781 73.2783 45.3328 71.6496 46.1016 70.6869C46.3031 70.4326 46.6735 70.2268 46.936 70.2268L47.1094 70.2207V71.8615Z" fill="white"/>
<g clip-path="url(#clip1_1_4)">
<path fill-rule="evenodd" clip-rule="evenodd" d="M355.824 74.407C354.369 76.1031 352.676 77.6221 350.774 78.8507C350.54 79.0333 350.222 79.0554 349.962 78.8783C347.153 76.9774 344.793 74.6947 342.938 72.2128C340.378 68.7984 338.768 65.0133 338.216 61.3664C337.654 57.6698 338.18 54.1116 339.91 51.2201C340.591 50.0774 341.463 49.037 342.524 48.1378C344.965 46.0709 347.751 44.9779 350.529 45.0001C353.204 45.0222 355.845 46.0819 358.126 48.2982C358.928 49.073 359.601 49.9612 360.153 50.9241C362.013 54.1835 362.414 58.3394 361.597 62.5507C360.79 66.7121 358.787 70.94 355.824 74.3987V74.407ZM349.999 51.5743C353.298 51.5743 355.969 54.4187 355.969 57.9244C355.969 61.4329 353.295 64.2745 349.999 64.2745C346.7 64.2745 344.028 61.4329 344.028 57.9244C344.025 54.4159 346.7 51.5743 349.999 51.5743Z" fill="#9ADDEB"/>
</g>
<path d="M48 35V7C48 5.34315 49.3431 4 51 4H347C348.657 4 350 5.34315 350 7V35" stroke="#FDAC61" stroke-width="8" stroke-linecap="round"/>
<defs>
<clipPath id="clip0_1_4">
<rect width="36" height="37" fill="white" transform="translate(28 45)"/>
</clipPath>
<clipPath id="clip1_1_4">
<rect width="24" height="34" fill="white" transform="translate(338 45)"/>
</clipPath>
</defs>
</svg>
